<svg width="24" height="24" viewBox="0 0 24 24" fill="none" xmlns="http://www.w3.org/2000/svg">
<path d="M21.2537 12.7197C21.2537 18.3974 16.7198 23 11.1269 23C5.53395 23 1 18.3974 1 12.7197C1 7.04205 5.53395 2.4394 11.1269 2.4394C16.7198 2.4394 21.2537 7.04205 21.2537 12.7197Z" fill="#D9D9D9"/>
<path fill-rule="evenodd" clip-rule="evenodd" d="M11.1269 21.9545C16.151 21.9545 20.2239 17.82 20.2239 12.7197C20.2239 7.61944 16.151 3.48485 11.1269 3.48485C6.10272 3.48485 2.02985 7.61944 2.02985 12.7197C2.02985 17.82 6.10272 21.9545 11.1269 21.9545ZM11.1269 23C16.7198 23 21.2537 18.3974 21.2537 12.7197C21.2537 7.04205 16.7198 2.4394 11.1269 2.4394C5.53395 2.4394 1 7.04205 1 12.7197C1 18.3974 5.53395 23 11.1269 23Z" fill="black"/>
<path d="M24 5.40151C24 8.38469 21.6178 10.803 18.6791 10.803C15.7405 10.803 13.3582 8.38469 13.3582 5.40151C13.3582 2.41834 15.7405 0 18.6791 0C21.6178 0 24 2.41834 24 5.40151Z" fill="#D9D9D9"/>
<path fill-rule="evenodd" clip-rule="evenodd" d="M18.6791 9.75757C21.049 9.75757 22.9701 7.8073 22.9701 5.40151C22.9701 2.99573 21.049 1.04545 18.6791 1.04545C16.3092 1.04545 14.3881 2.99573 14.3881 5.40151C14.3881 7.8073 16.3092 9.75757 18.6791 9.75757ZM18.6791 10.803C21.6178 10.803 24 8.38469 24 5.40151C24 2.41834 21.6178 0 18.6791 0C15.7405 0 13.3582 2.41834 13.3582 5.40151C13.3582 8.38469 15.7405 10.803 18.6791 10.803Z" fill="black"/>
<path fill-rule="evenodd" clip-rule="evenodd" d="M15.5895 5.22728C15.5895 4.93858 15.8201 4.70455 16.1045 4.70455H21.2537C21.5381 4.70455 21.7686 4.93858 21.7686 5.22728C21.7686 5.51597 21.5381 5.75001 21.2537 5.75001H16.1045C15.8201 5.75001 15.5895 5.51597 15.5895 5.22728Z" fill="black"/>
<path fill-rule="evenodd" clip-rule="evenodd" d="M18.8507 1.91666C19.1351 1.91666 19.3656 2.1507 19.3656 2.43939V7.66666C19.3656 7.95536 19.1351 8.18939 18.8507 8.18939C18.5663 8.18939 18.3358 7.95536 18.3358 7.66666V2.43939C18.3358 2.1507 18.5663 1.91666 18.8507 1.91666Z" fill="black"/>
<path d="M14.819 13.3923C14.8396 13.3156 14.8619 13.2111 14.8859 13.0786C14.9203 12.9218 14.9477 12.8033 14.9683 12.7232C14.9889 12.643 15.0164 12.5751 15.0507 12.5193C15.0885 12.4566 15.1211 12.4148 15.1486 12.3939C15.1795 12.373 15.2121 12.3625 15.2464 12.3625C15.4249 12.3625 15.5142 12.4322 15.5142 12.5716C15.5142 12.6413 15.4867 12.772 15.4318 12.9636C15.2498 13.5212 15.1194 13.9533 15.0404 14.26C15.0061 14.3889 14.9546 14.4883 14.8859 14.558C14.8173 14.6242 14.7246 14.6573 14.6079 14.6573C14.5495 14.6573 14.4895 14.6294 14.4277 14.5736C14.3693 14.5144 14.3212 14.443 14.2835 14.3593L14.2268 14.2182C14.1307 13.9708 14.0586 13.7808 14.0106 13.6484C13.9659 13.5125 13.9368 13.3905 13.923 13.2825L13.8767 13.4498C13.7943 13.7495 13.7085 14.0283 13.6192 14.2861C13.5746 14.4186 13.5197 14.5144 13.4545 14.5736C13.3892 14.6294 13.3051 14.6573 13.2021 14.6573C13.1404 14.6573 13.0854 14.6433 13.0374 14.6155C12.9927 14.5876 12.9498 14.5405 12.9086 14.4743C12.8537 14.3837 12.8005 14.2617 12.749 14.1084C12.7009 13.9551 12.6306 13.7164 12.5379 13.3923C12.4933 13.2529 12.4521 13.1065 12.4143 12.9532C12.3765 12.7964 12.3577 12.6866 12.3577 12.6239C12.3577 12.5507 12.3765 12.4932 12.4143 12.4514C12.4521 12.4095 12.507 12.3886 12.5791 12.3886C12.6718 12.3886 12.737 12.4078 12.7748 12.4461C12.8125 12.481 12.8468 12.535 12.8777 12.6082C12.8949 12.7336 12.9327 12.9114 12.991 13.1414L13.1043 13.6327C13.1112 13.6711 13.1318 13.7512 13.1661 13.8732L13.2073 14.0248C13.2828 13.861 13.3463 13.7042 13.3978 13.5543C13.4493 13.4045 13.5059 13.2198 13.5677 13.0002C13.5712 12.9863 13.6055 12.8661 13.6707 12.6395C13.7154 12.5664 13.7548 12.5124 13.7892 12.4775C13.8235 12.4392 13.8578 12.42 13.8921 12.42C13.9608 12.42 14.0192 12.4427 14.0672 12.488C14.1187 12.5298 14.1565 12.582 14.1805 12.6448C14.2217 12.7807 14.2577 12.9044 14.2886 13.0159C14.3024 13.0612 14.3333 13.171 14.3813 13.3452C14.4328 13.516 14.4792 13.6606 14.5204 13.7791C14.5615 13.8976 14.5959 13.9812 14.6233 14.03L14.819 13.3923Z" fill="black"/>
<path d="M9.94501 13.5282C9.94501 13.3957 9.96904 13.2633 10.0171 13.1309C10.0652 12.995 10.1287 12.8713 10.2076 12.7598C10.2866 12.6482 10.4119 12.5576 10.5835 12.4879C10.7552 12.4148 10.9079 12.3782 11.0418 12.3782C11.1791 12.3782 11.3181 12.3973 11.4589 12.4357C11.6031 12.474 11.7026 12.5332 11.7575 12.6134C11.8846 12.7946 11.9481 12.9723 11.9481 13.1466C11.9481 13.2407 11.9275 13.3208 11.8863 13.387C11.8485 13.4532 11.7936 13.5247 11.7215 13.6014C11.6631 13.6641 11.5705 13.7059 11.4434 13.7268C11.3199 13.7477 11.1963 13.7582 11.0727 13.7582C10.9937 13.7582 10.8976 13.7512 10.7843 13.7373C10.6711 13.7198 10.5612 13.6989 10.4548 13.6745C10.4616 13.7442 10.4788 13.8122 10.5063 13.8784C10.5337 13.9446 10.5663 13.9951 10.6041 14.03C10.6728 14.0962 10.7431 14.138 10.8152 14.1554C10.8908 14.1729 10.9869 14.1816 11.1036 14.1816C11.2272 14.1816 11.3422 14.1607 11.4486 14.1189C11.5344 14.0875 11.6048 14.0718 11.6597 14.0718C11.7249 14.0718 11.7747 14.0927 11.809 14.1345C11.8434 14.1729 11.8605 14.2234 11.8605 14.2861C11.8605 14.3732 11.8108 14.4447 11.7112 14.5004C11.6116 14.5562 11.4966 14.598 11.3662 14.6259C11.2392 14.6503 11.1362 14.6625 11.0572 14.6625C10.8959 14.6625 10.7397 14.6329 10.5887 14.5736C10.4376 14.5144 10.3123 14.4307 10.2128 14.3227C10.1304 14.2251 10.0652 14.1084 10.0171 13.9725C9.96904 13.8331 9.94501 13.685 9.94501 13.5282ZM11.0675 12.8225C10.992 12.8225 10.9165 12.8382 10.841 12.8695C10.7655 12.8974 10.7037 12.9375 10.6556 12.9898C10.5938 13.056 10.5509 13.11 10.5269 13.1518C10.5063 13.1901 10.4925 13.2442 10.4857 13.3139C10.5715 13.3417 10.75 13.3557 11.0212 13.3557C11.1688 13.3557 11.2821 13.333 11.3611 13.2877C11.4434 13.2424 11.4846 13.1832 11.4846 13.11C11.4846 13.0368 11.44 12.9706 11.3508 12.9114C11.2615 12.8521 11.1671 12.8225 11.0675 12.8225Z" fill="black"/>
<path d="M8.76158 11.6986C8.76158 11.5976 8.78389 11.5104 8.82852 11.4373C8.87658 11.3606 8.94695 11.3223 9.03964 11.3223C9.11859 11.3223 9.18897 11.3379 9.25076 11.3693C9.31255 11.4007 9.34344 11.4529 9.34344 11.5261C9.34344 11.669 9.33658 11.8694 9.32285 12.1273C9.30912 12.3782 9.30225 12.5646 9.30225 12.6866C9.30225 12.8783 9.30912 13.1344 9.32285 13.455C9.33658 13.7617 9.34344 13.9864 9.34344 14.1293C9.34344 14.2443 9.34173 14.3297 9.33829 14.3854C9.33829 14.4412 9.3074 14.497 9.24561 14.5527C9.18725 14.605 9.09628 14.6311 8.9727 14.6311C8.90747 14.6311 8.85083 14.6207 8.80277 14.5998C8.75815 14.5754 8.72725 14.5492 8.71009 14.5214C8.54874 14.3227 8.31359 13.9847 8.00464 13.5073C7.65792 12.9741 7.37471 12.5664 7.15501 12.2841C7.18248 12.535 7.19621 12.8417 7.19621 13.2041C7.19621 13.3644 7.19277 13.5735 7.18591 13.8314C7.18248 14.0857 7.17561 14.253 7.16531 14.3332C7.15158 14.4342 7.12068 14.5126 7.07262 14.5684C7.028 14.6207 6.95591 14.6468 6.85636 14.6468C6.78083 14.6468 6.72419 14.6259 6.68643 14.5841C6.6521 14.5388 6.63151 14.4621 6.62464 14.3541C6.62121 14.2112 6.62979 13.9969 6.65039 13.7111C6.65382 13.6658 6.65897 13.5874 6.66583 13.4759C6.6727 13.3644 6.67613 13.2651 6.67613 13.1779C6.67613 12.9375 6.66412 12.6622 6.64009 12.352C6.61949 12.0105 6.60919 11.7579 6.60919 11.5941C6.60919 11.5104 6.63837 11.446 6.69673 11.4007C6.75852 11.3554 6.82889 11.3327 6.90785 11.3327C6.97651 11.3327 7.04859 11.3501 7.12412 11.385C7.41934 11.7614 7.81927 12.3224 8.32389 13.0682L8.80792 13.8209C8.81135 13.7651 8.81307 13.6867 8.81307 13.5857C8.81307 13.4079 8.80964 13.2163 8.80277 13.0107C8.79591 12.8051 8.79076 12.6657 8.78732 12.5925C8.77016 12.2545 8.76158 11.9565 8.76158 11.6986Z" fill="black"/>
</svg>
